<?xml version="1.0" encoding="UTF-8" standalone="no"?>
<!-- Created with Inkscape (http://www.inkscape.org/) -->

<svg
   version="1.1"
   id="svg1"
   width="1010.8949"
   height="163.55273"
   viewBox="0 0 1010.8949 163.55273"
   sodipodi:docname="RPS-light.svg"
   inkscape:version="1.4.2 (f4327f4, 2025-05-13)"
   xmlns:inkscape="http://www.inkscape.org/namespaces/inkscape"
   xmlns:sodipodi="http://sodipodi.sourceforge.net/DTD/sodipodi-0.dtd"
   xmlns="http://www.w3.org/2000/svg"
   xmlns:svg="http://www.w3.org/2000/svg">
  <defs
     id="defs1" />
  <sodipodi:namedview
     id="namedview1"
     pagecolor="#ffffff"
     bordercolor="#000000"
     borderopacity="0.25"
     inkscape:showpageshadow="2"
     inkscape:pageopacity="0.0"
     inkscape:pagecheckerboard="0"
     inkscape:deskcolor="#d1d1d1"
     inkscape:zoom="2.1606524"
     inkscape:cx="525.76712"
     inkscape:cy="55.307369"
     inkscape:window-width="3440"
     inkscape:window-height="1369"
     inkscape:window-x="1072"
     inkscape:window-y="154"
     inkscape:window-maximized="1"
     inkscape:current-layer="g1" />
  <g
     inkscape:groupmode="layer"
     inkscape:label="Image"
     id="g1"
     transform="translate(37.754288,-259.30634)">
    <path
       style="fill:#ffffff;fill-opacity:1"
       d="m 367.95744,421.70656 c -0.33679,-0.87988 2.23417,-6.57988 5.71322,-12.66667 12.1432,-21.24513 14.0999,-25.06688 12.83398,-25.06688 -0.70111,0 -5.09617,1.42854 -9.76682,3.17453 -8.94186,3.34266 -12.48813,3.05231 -17.43858,-1.42778 -3.29457,-2.98154 -4.35202,-10.37569 -2.41337,-16.87537 1.43591,-4.81415 4.8508,-11.23723 22.32626,-41.99348 2.6797,-4.71618 3.82133,-5.64599 6.16137,-5.0182 1.57974,0.4238 5.14108,0.77875 7.91409,0.78876 3.13059,0.0113 5.31945,0.74163 5.77415,1.92656 0.40277,1.0496 -3.66606,10.1815 -9.04184,20.29313 -5.37579,10.11162 -9.97416,18.85286 -10.2186,19.42498 -1.31757,3.08373 5.77893,0.0702 15.67868,-6.658 l 11.23423,-7.63513 9.60054,-17.8192 c 5.28031,-9.80056 10.4249,-18.34137 11.43244,-18.97958 3.0125,-1.90823 10.15484,-1.35446 12.47665,0.96735 1.20037,1.20037 1.98701,3.73036 1.76191,5.66667 -0.38435,3.30616 -0.0499,3.52077 6.0956,3.91138 17.42196,1.10735 20.18935,15.05565 7.78801,39.25338 -0.28187,0.55 0.604,1 1.9686,1 4.39357,0 8.01636,-3.68349 8.86938,-9.01799 1.03358,-6.46366 9.18104,-18.22346 16.48562,-23.79485 6.11965,-4.66761 16.67499,-7.59605 22.89527,-6.352 2.16447,0.4329 5.63538,2.56148 7.71313,4.73018 8.49496,8.86683 2.51511,22.89304 -14.67923,34.43128 -6.42725,4.31301 -8.24264,6.11587 -6.44735,6.40289 2.25808,0.361 11.14709,-3.84 22.44491,-10.60761 3.80624,-2.28001 4.40492,-2.32257 6.28095,-0.44654 1.14053,1.14053 2.47224,4.19812 2.95935,6.79464 0.79185,4.2209 0.40902,5.1283 -3.61429,8.56679 -7.09167,6.06084 -21.826,13.32605 -29.49222,14.54204 -10.1147,1.60436 -14.87596,0.46265 -20.38568,-4.88832 l -4.82605,-4.687 -10.898,3.46899 c -5.9939,1.90794 -15.82465,4.50366 -21.84611,5.76827 -11.62827,2.44213 -13.12914,2.17857 -22.22332,-3.90255 -1.56522,-1.04663 -2.71156,-1.17475 -3.05608,-0.34155 -0.30322,0.73333 -4.94611,9.43333 -10.31753,19.33333 l -9.76621,18 -9.68236,0.66667 c -6.8315,0.47037 -9.86266,0.19562 -10.2947,-0.93312 z m 63.34078,-57.34983 c 7.55401,-5.62553 14.54284,-18.82836 11.09472,-20.95942 -3.36314,-2.07853 -12.81465,5.81074 -21.3409,17.81346 -3.12688,4.40184 -3.76599,6.16912 -2.51135,6.94452 2.45029,1.51437 7.73705,-0.0598 12.75753,-3.79856 z m 65.6142,-19.0973 c 0,-1.76585 -1.80556,-1.61419 -3.73333,0.31358 -2.51679,2.51678 -1.87014,3.97173 1.06666,2.4 1.46667,-0.78494 2.66667,-2.00605 2.66667,-2.71358 z m 78.89861,50.63672 c -11.26439,-2.00454 -26.05022,-8.81119 -32.80546,-15.10197 -3.35123,-3.12081 -6.09315,-6.32727 -6.09315,-7.12546 0,-1.76448 11.73716,-16.36238 13.15585,-16.36238 0.55513,0 2.34501,1.80661 3.97751,4.01468 7.02458,9.50125 20.37735,14.61471 38.19998,14.62873 12.24608,0.01 18.43988,-1.4127 24.82351,-5.70042 5.4879,-3.68607 6.38317,-8.38266 2.53134,-13.27946 -1.5246,-1.93822 -9.9659,-7.78102 -18.75843,-12.98401 -23.63403,-13.98545 -29.59091,-23.6964 -24.75018,-40.34792 3.51271,-12.08332 13.87641,-20.37002 35.4871,-28.3751 8.69871,-3.2222 11.99531,-3.7163 25.33333,-3.79703 13.46735,-0.0815 16.0293,0.27476 21.05231,2.92764 11.31903,5.97811 14.32856,18.39713 7.18559,29.65185 -3.50034,5.51525 -16.70874,18.59438 -18.77817,18.59438 -1.68829,0 -11.10329,-10.40478 -10.61143,-11.72698 0.26677,-0.71711 3.17996,-3.34856 6.47376,-5.84767 5.63219,-4.27332 9.54246,-10.67195 7.66753,-12.54688 -0.46213,-0.46212 -4.62384,-1.13309 -9.24824,-1.49103 -20.39672,-1.57875 -46.40802,10.51482 -46.40802,21.57673 0,3.61644 6.75908,10.00613 15.03707,14.21531 9.01185,4.58233 20.16408,12.55863 24.56121,17.56668 2.34356,2.66918 4.75866,7.51711 5.70038,11.4426 0.89869,3.74618 2.21359,6.81124 2.92199,6.81124 2.85398,0 6.44602,-2.90569 6.44602,-5.21434 0,-4.6986 6.37988,-16.83527 11.7688,-22.38818 9.07029,-9.34631 19.02571,-12.71783 27.32004,-9.25224 14.56084,6.08391 11.1578,23.69375 -7.1492,36.99521 -5.36333,3.89688 -7.34261,6.00994 -5.90915,6.30855 4.29922,0.89558 21.99136,-12.51483 30.18357,-22.87876 4.52141,-5.72 5.20001,-7.38851 4.50714,-11.08182 -1.41666,-7.55148 5.85184,-20.48842 11.51123,-20.48842 3.71257,0 7.76758,4.85825 7.76758,9.30623 0,3.28711 0.91294,4.43865 5.28875,6.67102 9.87971,5.04026 10.17686,10.38971 1.39795,25.16681 -5.32739,8.96733 -6.42876,12.18927 -4.16671,12.18927 1.05119,0 11.32253,-7.38905 19.86369,-14.28964 2.03276,-1.64232 4.30927,-6.67539 6.82416,-15.0874 2.81087,-9.40198 4.32903,-12.59461 5.94966,-12.51185 1.19671,0.0611 4.21164,0.21111 6.69985,0.33333 2.61494,0.12845 4.84586,1.06093 5.2867,2.20975 0.41947,1.09313 -1.01633,7.76692 -3.19068,14.83065 -4.63486,15.05706 -4.95348,17.6717 -1.83846,15.08646 1.80945,-1.50171 11.85791,-17.88217 19.48975,-31.77112 1.94442,-3.5386 3.0273,-4.13351 7.52401,-4.13351 3.65467,0 5.50994,0.67036 6.09826,2.20349 1.03627,2.70049 -1.11597,9.50105 -5.35046,16.90617 -1.74772,3.05635 -3.18491,6.007 -3.19374,6.557 -0.009,0.55 2.12286,1 4.7371,1 4.66148,0 4.85619,-0.21987 10.09524,-11.39971 l 5.34208,-11.39971 6.90476,0.39971 c 9.38442,0.54326 9.41152,2.44213 0.30218,21.17431 -7.98358,16.4172 -8.25163,17.2254 -5.71295,17.2254 3.10697,0 15.64869,-9.37109 15.66138,-11.70209 0.0198,-3.63926 7.24563,-15.15539 12.98603,-20.69643 6.09042,-5.87892 17.14442,-9.57485 22.52202,-7.53029 9.37963,3.56613 12.16205,12.76343 6.95125,22.97742 -4.79455,9.3981 -9.84516,11.47464 -13.67868,5.62395 -1.36551,-2.08403 -1.86704,-4.57527 -1.34214,-6.66667 2.45148,-9.76746 -11.19534,5.13791 -14.15616,15.46168 -2.88734,10.06757 3.57856,10.37314 21.47372,1.01481 11.47995,-6.00347 13.20574,-7.3642 13.9511,-11 1.28572,-6.27157 8.56639,-17.66473 14.16211,-22.16158 6.7831,-5.45104 11.19537,-6.90593 17.89627,-5.90107 6.2726,0.94064 10.08853,4.29096 12.24433,10.75038 1.2026,3.60328 0.8794,5.06729 -2.3778,10.77045 -3.63003,6.35592 -9.05078,11.97 -16.00941,16.58036 -5.55938,3.68331 -1.79919,4.35782 4.30462,0.77217 8.10716,-4.76249 21.96429,-19.62345 31.04429,-33.29309 8.3711,-12.60238 10.5264,-13.77641 16.6514,-9.07009 3.174,2.43888 3.2337,2.76091 1.5395,8.30369 -1.5695,5.13499 -2.1289,26.24473 -0.7327,27.64966 0.3006,0.30245 2.0419,-0.13144 3.8696,-0.96422 4.3128,-1.96501 6.9133,-0.87748 8.4385,3.52898 1.8489,5.34154 -1.6361,10.10488 -11.0098,15.04817 -4.4406,2.34182 -10.2881,6.22929 -12.9943,8.63882 -8.7258,7.76911 -18.4925,7.64775 -26.0101,-0.3232 l -4.40686,-4.67263 -7.35075,3.59639 c -13.52973,6.61948 -21.83763,5.72658 -29.54294,-3.17515 l -2.89772,-3.34766 -12.18288,6.22696 c -10.56469,5.39986 -13.2622,6.22695 -20.30873,6.22695 -7.72914,0 -8.37055,-0.25723 -13.1381,-5.26897 l -5.01224,-5.26896 -10.41569,5.93563 c -12.0132,6.84602 -16.49666,7.37377 -21.35652,2.51392 -2.69334,-2.69335 -3.24809,-4.25438 -2.60606,-7.33334 2.76943,-13.28127 3.17479,-11.91161 -3.52533,-11.91161 -5.78352,0 -6.42125,0.42373 -17.09376,11.35783 -12.22749,12.52719 -18.35365,15.71497 -24.6699,12.83709 -2.87068,-1.30797 -3.39261,-2.37551 -3.20021,-6.54556 0.12644,-2.74048 0.17176,-5.46152 0.10071,-6.04675 -0.0711,-0.58523 -2.67919,0.68039 -5.79586,2.8125 -10.67109,7.30007 -14.88186,8.81802 -23.29909,8.39914 -4.07608,-0.20284 -7.54506,-7.14989 -6.57015,-13.15754 0.41031,-2.52845 2.54222,-8.43558 4.73758,-13.12695 2.19535,-4.69137 3.72721,-8.52976 3.40412,-8.52976 -0.3231,0 -5.84157,5.28572 -12.26329,11.74606 -13.12738,13.20633 -23.63792,19.88171 -33.84464,21.49518 -8.78522,1.38875 -14.76323,-0.25374 -18.92505,-5.19979 -3.10455,-3.68955 -3.65012,-3.84153 -11.0857,-3.0882 -6.51689,0.66025 -8.75837,1.61357 -13.44731,5.71926 -8.32568,7.29005 -18.69126,10.86688 -33.03981,11.40099 -6.6,0.24568 -15.19563,-0.12198 -19.1014,-0.81703 z M 942.76051,364.7715 c 2.6175,-5.51597 2.7558,-8.79849 0.3707,-8.79849 -1.9232,0 -11.5521,10.09279 -11.5521,12.10868 0,0.67356 2.0316,1.22465 4.5148,1.22465 3.824,0 4.8439,-0.6938 6.6666,-4.53484 z M 676.93917,345.94079 c 0.92763,-1.11772 1.3156,-2.40322 0.86215,-2.85667 -0.96838,-0.96838 -4.88889,2.01381 -4.88889,3.71882 0,1.83659 2.17313,1.37131 4.02674,-0.86215 z m -711.026791,49.01633 c -2.016667,-0.27201 -3.666667,-1.04322 -3.666667,-1.71379 0,-1.71283 34.6112477,-57.73411 51.538641,-83.41972 3.920417,-5.94883 7.12803,-11.13854 7.12803,-11.53268 0,-0.39414 2.125806,-3.87555 4.724016,-7.73647 3.59632,-5.34411 4.31246,-7.28094 3,-8.11357 -0.94821,-0.60154 -8.474016,-1.1029 -16.724017,-1.11413 -11.12063228,-0.0151 -14.9902363,-0.45146 -14.9622463,-1.68708 0.020766,-0.91667 2.30286702,-5.86667 5.071336,-11 l 5.033581,-9.33334 34.5953363,0.1714 c 30.39924,0.1506 35.74993,0.49922 44.11462,2.87421 10.57524,3.00264 13.76023,4.48021 20.235181,9.38746 9.07235,6.87578 12.28593,19.51749 8.42966,33.16099 -1.97236,6.9782 -12.70679,18.97951 -21.244651,23.75194 -7.53289,4.21069 -25.71947,10.46018 -37.44693,12.86798 -13.21031,2.71224 -13.20036,2.68251 -5.39342,16.11936 7.43881,12.80324 7.76758,12.97841 18.31701,9.75941 3.43779,-1.04899 9.70053,-2.93112 13.9172,-4.18252 6.56201,-1.94744 7.66666,-2.73473 7.66666,-5.4641 0,-5.26207 7.70767,-18.87755 14.217561,-25.11513 10.62906,-10.18443 21.67402,-13.74067 32.5992,-10.49624 18.30845,5.43703 15.38888,24.42121 -6.16029,40.05657 -7.21197,5.23277 -2.65293,4.53449 9.72365,-1.48932 11.33412,-5.51643 12.40532,-6.3917 15.64366,-12.78226 9.31272,-18.37775 28.22155,-29.34919 43.49437,-25.23665 3.51304,0.94596 5.88979,0.99163 6.91697,0.13291 0.86069,-0.71954 7.26489,-11.84589 14.23156,-24.72523 l 12.66667,-23.41697 9.13405,0.22005 c 5.80639,0.13988 9.36272,0.81594 9.76171,1.8557 0.34521,0.8996 -0.91511,4.07955 -2.80072,7.06655 -1.88561,2.98699 -3.42838,5.63779 -3.42838,5.89065 0,0.44678 -6.03272,11.28026 -24.64654,44.25991 -4.96675,8.8 -10.60135,18.80178 -12.52133,22.22619 -1.91998,3.4244 -3.05439,6.66266 -2.52092,7.19613 0.53348,0.53348 6.00588,-2.11831 12.16089,-5.89285 6.15502,-3.77454 11.81713,-6.8628 12.58248,-6.8628 2.37823,0 6.28253,11.96775 4.72286,14.47688 -1.97736,3.18109 -15.68071,12.64079 -26.24774,18.11933 -10.85512,5.62791 -18.03812,6.2287 -22.3938,1.87302 -2.5032,-2.5032 -3.21724,-2.64141 -5.66666,-1.09685 -6.81514,4.29748 -9.91573,5.27836 -16.70939,5.28607 -6.84562,0.008 -7.53828,-0.31192 -12.71105,-5.86662 l -5.4709,-5.87483 -5.28895,3.22714 c -2.90893,1.77493 -9.8964,4.69537 -15.52771,6.48988 -14.08152,4.48729 -22.2174,3.56905 -29.628541,-3.34399 l -5.29289,-4.93715 -6.08658,2.32111 c -19.43848,7.41284 -32.8988,10.4123 -36.96364,8.23686 -1.41116,-0.75523 -6.40386,-7.56913 -11.09487,-15.142 -11.92881,-19.25708 -17.40244,-27.10219 -18.909526,-27.10219 -1.103001,0 -17.68019928,26.02587 -27.0005983,42.39039 -2.8613177,5.02384 -2.9412477,5.05935 -12.1657597,5.40601 -5.107036,0.19193 -10.935519,0.1264 -12.952186,-0.14562 z M 176.30667,367.18806 c 6.72268,-3.19012 21.49394,-24.10462 18.87442,-26.72414 -0.48175,-0.48174 -3.59,0.16062 -6.90723,1.42748 -9.1209,3.4833 -18.02813,15.42429 -18.02813,24.16841 0,3.83512 0.25616,3.8828 6.06094,1.12825 z m -53.71399,-21.26901 c 3.70697,-3.43729 5.03451,-6.88564 1.98638,-5.15971 -2.85205,1.61491 -7.66667,6.291 -7.66667,7.44609 0,1.95934 1.94637,1.17591 5.68029,-2.28638 z M 55.579049,322.59127 c 21.11744,-5.31915 35.02172,-12.79503 39.92516,-21.46647 3.60935,-6.38292 3.45815,-9.40486 -0.67749,-13.5405 -4.94477,-4.94476 -14.10278,-7.61129 -26.14045,-7.61129 h -10.41775 l -4.05852,7 c -2.23218,3.85 -8.53731,14.05626 -14.0114,22.68057 -5.47408,8.62432 -9.95288,16.04346 -9.95288,16.48697 0,1.2437 14.20708,-0.74676 25.33333,-3.54928 z m 199.467931,69.59949 c -0.87073,-1.40886 2.19778,-7.15779 23.60135,-44.21775 9.5294,-16.5 18.36534,-31.8 19.63543,-34 1.2701,-2.2 4.78112,-8.19048 7.80229,-13.31217 3.02116,-5.1217 5.49302,-10.0717 5.49302,-11 0,-1.2357 -3.19344,-1.68783 -11.92131,-1.68783 -6.55672,0 -12.20159,-0.4535 -12.54414,-1.00777 -0.75771,-1.226 5.41147,-16.34087 7.60504,-18.63282 1.00056,-1.04544 7.06888,-1.8205 16.72776,-2.13652 12.86032,-0.42076 15.48409,-0.87939 17.31179,-3.02607 1.70324,-2.0005 3.95457,-2.53015 10.75455,-2.53015 7.98998,0 8.65469,0.22828 9.36587,3.2165 0.59234,2.48885 2.86958,4.06367 10.06631,6.96132 14.80988,5.96295 21.33863,15.43476 21.01542,30.48884 -0.47339,22.04868 -23.80792,44.95931 -53.48898,52.51726 -10.957,2.79008 -13.29204,2.70859 -18.81201,-0.65652 -5.62035,-3.42631 -4.41579,-4.81788 -18.13411,20.94966 l -10.21632,19.1896 h -11.78625 c -6.48243,0 -12.0965,-0.50201 -12.47571,-1.11558 z m 71.2732,-59.08247 c 18.47264,-6.15892 32.6545,-18.73729 34.21115,-30.34303 0.94939,-7.07818 -1.79512,-11.20851 -9.37002,-14.1014 -10.45436,-3.99255 -12.65479,-2.88711 -19.85729,9.97582 -12.67862,22.6427 -19.72495,35.68099 -19.72495,36.49836 0,1.65074 6.30667,0.78236 14.74111,-2.02975 z m 495.9256,-11.80195 c -6.52541,-6.5254 -0.97699,-18.66666 8.53045,-18.66666 10.02271,0 12.56914,14.62775 3.37419,19.38264 -5.15141,2.6639 -8.74063,2.44803 -11.90464,-0.71598 z m -430.56993,-6.17981 c -3.20835,-4.07876 -3.15545,-3.68846 -1.37085,-10.11421 2.51851,-9.0683 12.52996,-12.17513 18.55766,-5.75894 2.53406,2.69738 2.95088,4.25602 2.34541,8.77015 -1.03111,7.68748 -4.08559,10.61615 -11.0722,10.61615 -4.56601,0 -6.24502,-0.69724 -8.46002,-3.51315 z"
       id="path1" />
  </g>
</svg>
