<svg xmlns="http://www.w3.org/2000/svg" viewBox="0 0 512 512"><circle cx="256" cy="256" r="256" fill="#600404"/><path d="M150.900 2.100L150.900 2.100Q140.400 2.100 132.750-3.150Q125.100-8.400 119.550-16.800Q114-25.200 109.950-35.250Q105.900-45.300 102.300-54.600L102.300-54.600Q96.900-69.600 92.400-80.850Q87.900-92.100 82.500-99.900L82.500-99.900Q76.800-77.100 73.350-56.100Q69.900-35.100 69-9.300L69-9.300Q63.600-4.200 56.850-1.500Q50.100 1.200 43.200 1.200L43.200 1.200Q32.700 1.200 24.600-6.150Q16.500-13.500 16.500-30.900L16.500-30.900Q16.500-42.900 20.100-57.900Q23.700-72.900 28.950-88.800Q34.200-104.700 39.600-119.700Q45-134.700 48.600-146.850Q52.200-159 52.200-166.200L52.200-166.200Q52.200-173.700 47.100-173.700L47.100-173.700Q41.400-173.700 33.300-165.150Q25.200-156.600 16.800-141.300L16.800-141.300L15-141.900Q15-159.900 22.800-174Q30.600-188.100 43.950-197.850Q57.300-207.600 74.850-212.700Q92.400-217.800 111.600-217.800L111.600-217.800Q137.100-217.800 153-209.850Q168.900-201.900 176.550-189.450Q184.200-177 184.200-162.900L184.200-162.900Q184.200-148.500 176.850-134.700Q169.500-120.900 156.150-111.750Q142.800-102.600 124.500-101.100L124.500-101.100Q130.800-96.300 135.300-88.950Q139.800-81.600 144.600-72.300L144.600-72.300Q148.800-63.900 154.500-56.250Q160.200-48.600 170.100-48.600L170.100-48.600Q175.200-48.600 178.500-51.150Q181.800-53.700 184.200-59.700L184.200-59.700L186-58.800Q187.500-54.300 187.950-50.100Q188.400-45.900 188.400-42.300L188.400-42.300Q188.400-23.400 177.900-10.650Q167.400 2.100 150.900 2.100ZM97.500-127.500L97.500-127.500Q108.300-127.500 116.250-132.450Q124.200-137.400 128.550-144.750Q132.900-152.100 132.900-159.600L132.900-159.600Q132.900-168.900 125.850-175.950Q118.800-183 102.900-183L102.900-183Q100.500-183 97.950-182.850Q95.400-182.700 93-182.400L93-182.400Q93.300-180.300 93.300-178.350Q93.300-176.400 93.300-176.400L93.300-176.400Q93.300-162.600 92.250-149.700Q91.200-136.800 89.400-128.100L89.400-128.100Q91.500-127.800 93.450-127.650Q95.400-127.500 97.500-127.500ZM234.900 1.200L234.900 1.200Q224.700 1.200 216.600-6.450Q208.500-14.100 208.500-32.400L208.500-32.400Q208.500-44.400 211.950-59.100Q215.400-73.800 220.350-89.550Q225.300-105.300 230.400-120Q235.500-134.700 238.800-146.700Q242.100-158.700 242.100-165.600L242.100-165.600Q242.100-173.700 235.800-173.700L235.800-173.700Q228.300-173.700 221.700-165.150Q215.100-156.600 207-141.300L207-141.300L205.200-141.900Q205.200-165.600 217.800-183.150Q230.400-200.700 251.850-210.300Q273.300-219.900 299.700-219.900L299.700-219.900Q326.400-219.900 343.050-210.750Q359.700-201.600 367.650-187.050Q375.600-172.500 375.600-156L375.600-156Q375.600-141.900 370.350-127.950Q365.100-114 355.350-102.600Q345.600-91.200 332.400-84.300Q319.200-77.400 303.300-77.400L303.300-77.400Q286.800-77.400 269.100-85.800L269.100-85.800Q265.200-71.100 262.200-55.950Q259.200-40.800 259.200-24.900L259.200-24.900Q259.200-17.100 260.100-9.300L260.100-9.300Q255-4.200 248.250-1.500Q241.500 1.200 234.900 1.200ZM282.900-107.400L282.900-107.400Q294.900-107.400 303.900-114.150Q312.900-120.900 317.850-131.250Q322.800-141.600 322.800-152.100L322.800-152.100Q322.800-164.400 314.850-174Q306.900-183.600 288.900-183.600L288.900-183.600Q286.500-183.600 283.350-183.300Q280.200-183 276.900-182.400L276.900-182.400Q279.300-174.900 280.050-167.550Q280.800-160.200 280.800-153.300L280.800-153.300Q280.800-141.300 279-130.200Q277.200-119.100 274.800-108.300L274.800-108.300Q279-107.400 282.900-107.400Z" fill="#fff" transform="translate(60.69999694824219, 364.8999938964844)"/></svg>